<svg width="20" height="19" viewBox="0 0 20 19" fill="none" xmlns="http://www.w3.org/2000/svg">
    <path d="M14.8021 11.6531C14.8021 12.4853 15.051 12.8173 15.7021 12.8173C17.1531 12.8173 18.0771 11.0586 18.0771 8.13366C18.0771 3.66307 14.6521 1.52289 10.376 1.52289C5.97708 1.52289 1.97604 4.3289 1.97604 9.63178C1.97604 14.6969 5.47604 17.4553 10.851 17.4553C12.676 17.4553 13.901 17.2651 15.775 16.6706L16.1771 18.2628C14.3271 18.8345 12.35 19 10.826 19C3.77604 19 0 15.3141 0 9.63079C0 3.89987 4.37604 0 10.401 0C16.676 0 20 3.56696 20 7.94243C20 11.6521 18.776 14.4819 14.926 14.4819C13.175 14.4819 12.026 13.816 11.876 12.3407C11.426 13.9815 10.226 14.4819 8.6 14.4819C6.425 14.4819 4.6 12.8876 4.6 9.67835C4.6 6.4443 6.20104 4.44681 9.07604 4.44681C10.601 4.44681 11.551 5.01752 11.974 5.92115L12.7 4.66083H14.8V11.6531H14.8021ZM11.7281 8.51413C11.7281 7.20724 10.7021 6.65931 9.85208 6.65931C8.92708 6.65931 7.90313 7.37171 7.90313 9.46532C7.90313 11.1299 8.67813 12.0573 9.85208 12.0573C10.6771 12.0573 11.7281 11.5579 11.7281 10.1787V8.51413Z" fill="#EFF1E4"/>
</svg>
